<svg xmlns="http://www.w3.org/2000/svg" version="1.1" xmlns:xlink="http://www.w3.org/1999/xlink" width="1000"
     height="1000">
    <metadata>
        <rdf:RDF xmlns:rdf="http://www.w3.org/1999/02/22-rdf-syntax-ns#" xmlns:dc="http://purl.org/dc/elements/1.1/">
            <rdf:Description>
                <dc:creator>RealFaviconGenerator</dc:creator>
                <dc:source>https://realfavicongenerator.net</dc:source>
            </rdf:Description>
        </rdf:RDF>
    </metadata>
    <g clip-path="url(#SvgjsClipPath1109)">
        <rect width="1000" height="1000" fill="#2a2a2a"></rect>
        <g transform="matrix(1, 0, 0, 1, -500, -500)">
            <svg xmlns="http://www.w3.org/2000/svg" version="1" xmlns:xlink="http://www.w3.org/1999/xlink" width="2000"
                 zoomAndPan="magnify" viewBox="0 0 1500 1499.999933" height="2000" preserveAspectRatio="xMidYMid meet">
                <defs>
                    <g></g>
                    <clipPath id="fbdb326152">
                        <path d="M 591.601562 774.894531 L 631.542969 774.894531 L 631.542969 846.089844 L 591.601562 846.089844 Z M 591.601562 774.894531 "
                              clip-rule="nonzero"></path>
                    </clipPath>
                    <clipPath id="c2d7c0cd98">
                        <path d="M 0.601562 0.894531 L 40.542969 0.894531 L 40.542969 72.089844 L 0.601562 72.089844 Z M 0.601562 0.894531 "
                              clip-rule="nonzero"></path>
                    </clipPath>
                    <clipPath id="e03963d57e">
                        <rect x="0" width="41" y="0" height="73"></rect>
                    </clipPath>
                    <clipPath id="58af0f86c6">
                        <path d="M 8 0.839844 L 167 0.839844 L 167 374.039062 L 8 374.039062 Z M 8 0.839844 "
                              clip-rule="nonzero"></path>
                    </clipPath>
                    <clipPath id="b67198188b">
                        <rect x="0" width="159" y="0" height="375"></rect>
                    </clipPath>
                    <clipPath id="2afbe89b76">
                        <path d="M 0.121094 80 L 172.441406 80 L 172.441406 290 L 0.121094 290 Z M 0.121094 80 "
                              clip-rule="nonzero"></path>
                    </clipPath>
                    <clipPath id="5cad3a5e4a">
                        <path d="M 22.523438 80.082031 L 172.417969 271.886719 L 150.097656 289.328125 L 0.203125 97.523438 Z M 22.523438 80.082031 "
                              clip-rule="nonzero"></path>
                    </clipPath>
                    <clipPath id="76670cf2df">
                        <path d="M 0.121094 0.0390625 L 172.441406 0.0390625 L 172.441406 209.558594 L 0.121094 209.558594 Z M 0.121094 0.0390625 "
                              clip-rule="nonzero"></path>
                    </clipPath>
                    <clipPath id="b48bbc7315">
                        <path d="M 22.523438 0.0820312 L 172.417969 191.886719 L 150.097656 209.328125 L 0.203125 17.523438 Z M 22.523438 0.0820312 "
                              clip-rule="nonzero"></path>
                    </clipPath>
                    <clipPath id="2ca1c1cd95">
                        <rect x="0" width="173" y="0" height="210"></rect>
                    </clipPath>
                    <clipPath id="7ba0f93ff6">
                        <rect x="0" width="173" y="0" height="375"></rect>
                    </clipPath>
                    <clipPath id="4fe439e28c">
                        <path d="M 30 189 L 156 189 L 156 251 L 30 251 Z M 30 189 " clip-rule="nonzero"></path>
                    </clipPath>
                    <clipPath id="1ccc36cc52">
                        <path d="M 143.875 171.949219 L 155.960938 250.777344 L 42.949219 268.105469 L 30.863281 189.277344 Z M 143.875 171.949219 "
                              clip-rule="nonzero"></path>
                    </clipPath>
                    <clipPath id="0067a6ad77">
                        <path d="M 148.359375 201.210938 L 155.960938 250.777344 L 38.570312 238.824219 L 30.96875 189.257812 Z M 148.359375 201.210938 "
                              clip-rule="nonzero"></path>
                    </clipPath>
                    <clipPath id="608ee5d6bf">
                        <path d="M 0.839844 0.0390625 L 126 0.0390625 L 126 61.960938 L 0.839844 61.960938 Z M 0.839844 0.0390625 "
                              clip-rule="nonzero"></path>
                    </clipPath>
                    <clipPath id="031c4be6e7">
                        <path d="M 113.875 -17.050781 L 125.960938 61.777344 L 12.949219 79.105469 L 0.863281 0.277344 Z M 113.875 -17.050781 "
                              clip-rule="nonzero"></path>
                    </clipPath>
                    <clipPath id="e9c881e490">
                        <path d="M 118.359375 12.210938 L 125.960938 61.777344 L 8.570312 49.824219 L 0.96875 0.257812 Z M 118.359375 12.210938 "
                              clip-rule="nonzero"></path>
                    </clipPath>
                    <clipPath id="ae3ce55cd3">
                        <rect x="0" width="126" y="0" height="62"></rect>
                    </clipPath>
                    <clipPath id="3f7d2e1154">
                        <path d="M 30 104 L 151 104 L 151 165 L 30 165 Z M 30 104 " clip-rule="nonzero"></path>
                    </clipPath>
                    <clipPath id="25ace7a074">
                        <path d="M 135.023438 84.714844 L 150.007812 164.570312 L 45.820312 184.117188 L 30.835938 104.261719 Z M 135.023438 84.714844 "
                              clip-rule="nonzero"></path>
                    </clipPath>
                    <clipPath id="c29c34f29e">
                        <path d="M 140.085938 111.683594 L 150.007812 164.570312 L 40.898438 157.121094 L 30.976562 104.234375 Z M 140.085938 111.683594 "
                              clip-rule="nonzero"></path>
                    </clipPath>
                    <clipPath id="1f5da70070">
                        <path d="M 0.839844 0.078125 L 120.121094 0.078125 L 120.121094 60.800781 L 0.839844 60.800781 Z M 0.839844 0.078125 "
                              clip-rule="nonzero"></path>
                    </clipPath>
                    <clipPath id="aea11c8ca7">
                        <path d="M 105.023438 -19.285156 L 120.007812 60.570312 L 15.820312 80.117188 L 0.835938 0.261719 Z M 105.023438 -19.285156 "
                              clip-rule="nonzero"></path>
                    </clipPath>
                    <clipPath id="3ecf412ccd">
                        <path d="M 110.085938 7.683594 L 120.007812 60.570312 L 10.898438 53.121094 L 0.976562 0.234375 Z M 110.085938 7.683594 "
                              clip-rule="nonzero"></path>
                    </clipPath>
                    <clipPath id="aa863e9a6a">
                        <rect x="0" width="121" y="0" height="61"></rect>
                    </clipPath>
                    <clipPath id="c8e381cb1a">
                        <path d="M 25 18 L 150 18 L 150 80 L 25 80 Z M 25 18 " clip-rule="nonzero"></path>
                    </clipPath>
                    <clipPath id="14834917a5">
                        <path d="M 137.914062 0.722656 L 150 79.550781 L 36.992188 96.878906 L 24.902344 18.050781 Z M 137.914062 0.722656 "
                              clip-rule="nonzero"></path>
                    </clipPath>
                    <clipPath id="0b22a78052">
                        <path d="M 142.402344 29.988281 L 150 79.550781 L 32.613281 67.597656 L 25.011719 18.035156 Z M 142.402344 29.988281 "
                              clip-rule="nonzero"></path>
                    </clipPath>
                    <clipPath id="b6ddca1e1d">
                        <path d="M 0 0 L 125 0 L 125 61.601562 L 0 61.601562 Z M 0 0 " clip-rule="nonzero"></path>
                    </clipPath>
                    <clipPath id="7315cb567c">
                        <path d="M 112.914062 -17.277344 L 125 61.550781 L 11.992188 78.878906 L -0.0976562 0.0507812 Z M 112.914062 -17.277344 "
                              clip-rule="nonzero"></path>
                    </clipPath>
                    <clipPath id="0b401ceff7">
                        <path d="M 117.402344 11.988281 L 125 61.550781 L 7.613281 49.597656 L 0.0117188 0.0351562 Z M 117.402344 11.988281 "
                              clip-rule="nonzero"></path>
                    </clipPath>
                    <clipPath id="5fc74efecd">
                        <rect x="0" width="125" y="0" height="62"></rect>
                    </clipPath>
                    <clipPath id="6deac60f66">
                        <path d="M 2 17 L 60 17 L 60 240 L 2 240 Z M 2 17 " clip-rule="nonzero"></path>
                    </clipPath>
                    <clipPath id="52d2d152f2">
                        <path d="M 0.601562 18.992188 L 41.945312 15.375 L 61.378906 237.59375 L 20.039062 241.210938 Z M 0.601562 18.992188 "
                              clip-rule="nonzero"></path>
                    </clipPath>
                    <clipPath id="2776c993a5">
                        <path d="M 21.273438 17.183594 C 26.757812 16.703125 32.203125 18.421875 36.421875 21.957031 C 40.636719 25.496094 43.273438 30.5625 43.753906 36.046875 L 59.566406 216.863281 C 60.046875 222.34375 58.328125 227.792969 54.792969 232.007812 C 51.253906 236.226562 46.1875 238.863281 40.703125 239.34375 C 35.222656 239.820312 29.773438 238.105469 25.558594 234.566406 C 21.339844 231.027344 18.703125 225.960938 18.222656 220.480469 L 2.410156 39.664062 C 1.929688 34.179688 3.648438 28.730469 7.1875 24.515625 C 10.722656 20.300781 15.792969 17.664062 21.273438 17.183594 Z M 21.273438 17.183594 "
                              clip-rule="nonzero"></path>
                    </clipPath>
                    <clipPath id="9fb9487ef9">
                        <path d="M 0 0 L 58 0 L 58 222.917969 L 0 222.917969 Z M 0 0 " clip-rule="nonzero"></path>
                    </clipPath>
                    <clipPath id="50a21c56c4">
                        <path d="M -1.398438 1.992188 L 39.945312 -1.625 L 59.378906 220.59375 L 18.039062 224.210938 Z M -1.398438 1.992188 "
                              clip-rule="nonzero"></path>
                    </clipPath>
                    <clipPath id="bcb2f05e29">
                        <path d="M 19.273438 0.183594 C 24.757812 -0.296875 30.203125 1.421875 34.421875 4.957031 C 38.636719 8.496094 41.273438 13.5625 41.753906 19.046875 L 57.566406 199.863281 C 58.046875 205.34375 56.328125 210.792969 52.792969 215.007812 C 49.253906 219.226562 44.1875 221.863281 38.703125 222.34375 C 33.222656 222.820312 27.773438 221.105469 23.558594 217.566406 C 19.339844 214.027344 16.703125 208.960938 16.222656 203.480469 L 0.410156 22.664062 C -0.0703125 17.179688 1.648438 11.730469 5.1875 7.515625 C 8.722656 3.300781 13.792969 0.664062 19.273438 0.183594 Z M 19.273438 0.183594 "
                              clip-rule="nonzero"></path>
                    </clipPath>
                    <clipPath id="0d66271a1f">
                        <rect x="0" width="58" y="0" height="223"></rect>
                    </clipPath>
                    <clipPath id="9b51ead496">
                        <rect x="0" width="157" y="0" height="269"></rect>
                    </clipPath>
                    <clipPath id="62d8d8b6e6">
                        <rect x="0" width="432" y="0" height="25"></rect>
                    </clipPath>
                    <clipPath id="SvgjsClipPath1109">
                        <rect width="1000" height="1000" x="0" y="0" rx="500" ry="500"></rect>
                    </clipPath>
                </defs>
                <rect x="-150" width="1800" fill="#ffffff" y="-149.999993" height="1799.99992" fill-opacity="1"></rect>
                <rect x="-150" width="1800" fill="#1e1c1c" y="-149.999993" height="1799.99992" fill-opacity="1"></rect>
                <g clip-path="url(#fbdb326152)">
                    <g transform="matrix(1, 0, 0, 1, 591, 774)">
                        <g clip-path="url(#e03963d57e)">
                            <g clip-path="url(#c2d7c0cd98)">
                                <path fill="#1e1c1c"
                                      d="M 0.601562 0.894531 L 40.542969 0.894531 L 40.542969 72.039062 L 0.601562 72.039062 Z M 0.601562 0.894531 "
                                      fill-opacity="1" fill-rule="nonzero"></path>
                            </g>
                        </g>
                    </g>
                </g>
                <g transform="matrix(1, 0, 0, 1, 789, 561)">
                    <g clip-path="url(#7ba0f93ff6)">
                        <g clip-path="url(#58af0f86c6)">
                            <g transform="matrix(1, 0, 0, 1, 8, 0.000000000000113687)">
                                <g clip-path="url(#b67198188b)">
                                    <g fill="#ffffff" fill-opacity="1">
                                        <g transform="translate(0.511729, 275.878622)">
                                            <g>
                                                <path d="M 84.421875 3.609375 C 69.328125 3.609375 56.332031 1.117188 45.4375 -3.859375 C 34.539062 -8.835938 26.128906 -15.914062 20.203125 -25.09375 C 14.285156 -34.28125 11.328125 -45.050781 11.328125 -57.40625 L 51.484375 -57.40625 C 51.484375 -48.820312 54.441406 -42.125 60.359375 -37.3125 C 66.285156 -32.507812 74.222656 -30.109375 84.171875 -30.109375 C 92.753906 -30.109375 99.53125 -31.78125 104.5 -35.125 C 109.476562 -38.476562 111.96875 -43.160156 111.96875 -49.171875 C 111.96875 -55.515625 108.960938 -60.660156 102.953125 -64.609375 C 96.953125 -68.554688 87.601562 -71.898438 74.90625 -74.640625 C 53.800781 -79.109375 38.1875 -85.890625 28.0625 -94.984375 C 17.9375 -104.078125 12.875 -115.914062 12.875 -130.5 C 12.875 -146.976562 18.878906 -159.976562 30.890625 -169.5 C 42.898438 -179.019531 59.285156 -183.78125 80.046875 -183.78125 C 94.296875 -183.78125 106.65625 -181.332031 117.125 -176.4375 C 127.59375 -171.550781 135.695312 -164.691406 141.4375 -155.859375 C 147.1875 -147.023438 150.0625 -136.515625 150.0625 -124.328125 L 110.6875 -124.328125 C 110.6875 -132.390625 108.023438 -138.738281 102.703125 -143.375 C 97.378906 -148.007812 90 -150.328125 80.5625 -150.328125 C 71.988281 -150.328125 65.210938 -148.648438 60.234375 -145.296875 C 55.253906 -141.953125 52.765625 -137.28125 52.765625 -131.28125 C 52.765625 -125.789062 55.507812 -121.15625 61 -117.375 C 66.5 -113.601562 76.109375 -110.085938 89.828125 -106.828125 C 112.316406 -101.503906 128.535156 -94.378906 138.484375 -85.453125 C 148.441406 -76.535156 153.421875 -64.953125 153.421875 -50.703125 C 153.421875 -33.710938 147.285156 -20.410156 135.015625 -10.796875 C 122.742188 -1.191406 105.878906 3.609375 84.421875 3.609375 Z M 84.421875 3.609375 "></path>
                                            </g>
                                        </g>
                                    </g>
                                </g>
                            </g>
                        </g>
                        <g clip-path="url(#2afbe89b76)">
                            <g clip-path="url(#5cad3a5e4a)">
                                <g transform="matrix(1, 0, 0, 1, 0, 80)">
                                    <g clip-path="url(#2ca1c1cd95)">
                                        <g clip-path="url(#76670cf2df)">
                                            <g clip-path="url(#b48bbc7315)">
                                                <path fill="#1e1c1c"
                                                      d="M 22.523438 0.0820312 L 172.417969 191.886719 L 150.097656 209.328125 L 0.203125 17.523438 Z M 22.523438 0.0820312 "
                                                      fill-opacity="1" fill-rule="nonzero"></path>
                                            </g>
                                        </g>
                                    </g>
                                </g>
                            </g>
                        </g>
                    </g>
                </g>
                <g transform="matrix(1, 0, 0, 1, 591, 578)">
                    <g clip-path="url(#9b51ead496)">
                        <g clip-path="url(#4fe439e28c)">
                            <g clip-path="url(#1ccc36cc52)">
                                <g clip-path="url(#0067a6ad77)">
                                    <g transform="matrix(1, 0, 0, 1, 30, 189)">
                                        <g clip-path="url(#ae3ce55cd3)">
                                            <g clip-path="url(#608ee5d6bf)">
                                                <g clip-path="url(#031c4be6e7)">
                                                    <g clip-path="url(#e9c881e490)">
                                                        <path fill="#e6ff4b"
                                                              d="M 113.875 -17.050781 L 125.960938 61.777344 L 12.949219 79.105469 L 0.863281 0.277344 Z M 113.875 -17.050781 "
                                                              fill-opacity="1" fill-rule="nonzero"></path>
                                                    </g>
                                                </g>
                                            </g>
                                        </g>
                                    </g>
                                </g>
                            </g>
                        </g>
                        <g clip-path="url(#3f7d2e1154)">
                            <g clip-path="url(#25ace7a074)">
                                <g clip-path="url(#c29c34f29e)">
                                    <g transform="matrix(1, 0, 0, 1, 30, 104)">
                                        <g clip-path="url(#aa863e9a6a)">
                                            <g clip-path="url(#1f5da70070)">
                                                <g clip-path="url(#aea11c8ca7)">
                                                    <g clip-path="url(#3ecf412ccd)">
                                                        <path fill="#e6ff4b"
                                                              d="M 105.023438 -19.285156 L 120.007812 60.570312 L 15.820312 80.117188 L 0.835938 0.261719 Z M 105.023438 -19.285156 "
                                                              fill-opacity="1" fill-rule="nonzero"></path>
                                                    </g>
                                                </g>
                                            </g>
                                        </g>
                                    </g>
                                </g>
                            </g>
                        </g>
                        <g clip-path="url(#c8e381cb1a)">
                            <g clip-path="url(#14834917a5)">
                                <g clip-path="url(#0b22a78052)">
                                    <g transform="matrix(1, 0, 0, 1, 25, 18)">
                                        <g clip-path="url(#5fc74efecd)">
                                            <g clip-path="url(#b6ddca1e1d)">
                                                <g clip-path="url(#7315cb567c)">
                                                    <g clip-path="url(#0b401ceff7)">
                                                        <path fill="#e6ff4b"
                                                              d="M 112.914062 -17.277344 L 125 61.550781 L 11.992188 78.878906 L -0.0976562 0.0507812 Z M 112.914062 -17.277344 "
                                                              fill-opacity="1" fill-rule="nonzero"></path>
                                                    </g>
                                                </g>
                                            </g>
                                        </g>
                                    </g>
                                </g>
                            </g>
                        </g>
                        <g clip-path="url(#6deac60f66)">
                            <g clip-path="url(#52d2d152f2)">
                                <g clip-path="url(#2776c993a5)">
                                    <g transform="matrix(1, 0, 0, 1, 2, 17)">
                                        <g clip-path="url(#0d66271a1f)">
                                            <g clip-path="url(#9fb9487ef9)">
                                                <g clip-path="url(#50a21c56c4)">
                                                    <g clip-path="url(#bcb2f05e29)">
                                                        <path fill="#e6ff4b"
                                                              d="M -1.398438 1.992188 L 39.945312 -1.625 L 59.378906 220.59375 L 18.039062 224.210938 Z M -1.398438 1.992188 "
                                                              fill-opacity="1" fill-rule="nonzero"></path>
                                                    </g>
                                                </g>
                                            </g>
                                        </g>
                                    </g>
                                </g>
                            </g>
                        </g>
                    </g>
                </g>
                <g transform="matrix(1, 0, 0, 1, 587, 863)">
                    <g clip-path="url(#62d8d8b6e6)">
                        <g fill="#e6ff4b" fill-opacity="1">
                            <g transform="translate(1.004648, 19.626622)">
                                <g>
                                    <path d="M 9.1875 -10.328125 C 9.113281 -11.003906 8.785156 -11.53125 8.203125 -11.90625 C 7.628906 -12.28125 6.925781 -12.46875 6.09375 -12.46875 C 5.1875 -12.46875 4.453125 -12.25 3.890625 -11.8125 C 3.335938 -11.382812 3.0625 -10.84375 3.0625 -10.1875 C 3.0625 -9.695312 3.210938 -9.300781 3.515625 -9 C 3.816406 -8.695312 4.175781 -8.457031 4.59375 -8.28125 C 5.007812 -8.113281 5.382812 -7.988281 5.71875 -7.90625 L 7.125 -7.53125 C 7.476562 -7.4375 7.875 -7.304688 8.3125 -7.140625 C 8.757812 -6.972656 9.1875 -6.742188 9.59375 -6.453125 C 10 -6.171875 10.332031 -5.804688 10.59375 -5.359375 C 10.863281 -4.921875 11 -4.378906 11 -3.734375 C 11 -2.992188 10.800781 -2.320312 10.40625 -1.71875 C 10.019531 -1.113281 9.457031 -0.632812 8.71875 -0.28125 C 7.976562 0.0625 7.078125 0.234375 6.015625 0.234375 C 4.535156 0.234375 3.363281 -0.113281 2.5 -0.8125 C 1.632812 -1.507812 1.160156 -2.421875 1.078125 -3.546875 L 2.796875 -3.546875 C 2.835938 -3.023438 3.007812 -2.59375 3.3125 -2.25 C 3.625 -1.914062 4.015625 -1.664062 4.484375 -1.5 C 4.960938 -1.34375 5.472656 -1.265625 6.015625 -1.265625 C 6.648438 -1.265625 7.222656 -1.367188 7.734375 -1.578125 C 8.242188 -1.785156 8.644531 -2.078125 8.9375 -2.453125 C 9.226562 -2.828125 9.375 -3.265625 9.375 -3.765625 C 9.375 -4.222656 9.242188 -4.59375 8.984375 -4.875 C 8.734375 -5.164062 8.398438 -5.398438 7.984375 -5.578125 C 7.566406 -5.753906 7.117188 -5.910156 6.640625 -6.046875 L 4.953125 -6.53125 C 3.867188 -6.84375 3.015625 -7.285156 2.390625 -7.859375 C 1.765625 -8.429688 1.453125 -9.179688 1.453125 -10.109375 C 1.453125 -10.878906 1.660156 -11.550781 2.078125 -12.125 C 2.492188 -12.695312 3.054688 -13.144531 3.765625 -13.46875 C 4.484375 -13.789062 5.28125 -13.953125 6.15625 -13.953125 C 7.039062 -13.953125 7.828125 -13.789062 8.515625 -13.46875 C 9.210938 -13.15625 9.757812 -12.722656 10.15625 -12.171875 C 10.5625 -11.628906 10.78125 -11.015625 10.8125 -10.328125 Z M 9.1875 -10.328125 "></path>
                                </g>
                            </g>
                        </g>
                        <g fill="#e6ff4b" fill-opacity="1">
                            <g transform="translate(25.391197, 19.626622)">
                                <g>
                                    <path d="M 13.28125 -6.875 C 13.28125 -5.425781 13.015625 -4.171875 12.484375 -3.109375 C 11.960938 -2.054688 11.242188 -1.242188 10.328125 -0.671875 C 9.421875 -0.0976562 8.378906 0.1875 7.203125 0.1875 C 6.023438 0.1875 4.976562 -0.0976562 4.0625 -0.671875 C 3.15625 -1.242188 2.4375 -2.054688 1.90625 -3.109375 C 1.382812 -4.171875 1.125 -5.425781 1.125 -6.875 C 1.125 -8.332031 1.382812 -9.585938 1.90625 -10.640625 C 2.4375 -11.703125 3.15625 -12.519531 4.0625 -13.09375 C 4.976562 -13.664062 6.023438 -13.953125 7.203125 -13.953125 C 8.378906 -13.953125 9.421875 -13.664062 10.328125 -13.09375 C 11.242188 -12.519531 11.960938 -11.703125 12.484375 -10.640625 C 13.015625 -9.585938 13.28125 -8.332031 13.28125 -6.875 Z M 11.671875 -6.875 C 11.671875 -8.070312 11.46875 -9.078125 11.0625 -9.890625 C 10.664062 -10.710938 10.128906 -11.332031 9.453125 -11.75 C 8.785156 -12.175781 8.035156 -12.390625 7.203125 -12.390625 C 6.367188 -12.390625 5.613281 -12.175781 4.9375 -11.75 C 4.269531 -11.332031 3.734375 -10.710938 3.328125 -9.890625 C 2.929688 -9.078125 2.734375 -8.070312 2.734375 -6.875 C 2.734375 -5.6875 2.929688 -4.679688 3.328125 -3.859375 C 3.734375 -3.046875 4.269531 -2.425781 4.9375 -2 C 5.613281 -1.582031 6.367188 -1.375 7.203125 -1.375 C 8.035156 -1.375 8.785156 -1.582031 9.453125 -2 C 10.128906 -2.425781 10.664062 -3.046875 11.0625 -3.859375 C 11.46875 -4.679688 11.671875 -5.6875 11.671875 -6.875 Z M 11.671875 -6.875 "></path>
                                </g>
                            </g>
                        </g>
                        <g fill="#e6ff4b" fill-opacity="1">
                            <g transform="translate(52.116118, 19.626622)">
                                <g>
                                    <path d="M 1.671875 0 L 1.671875 -13.765625 L 9.921875 -13.765625 L 9.921875 -12.28125 L 3.328125 -12.28125 L 3.328125 -7.640625 L 9.296875 -7.640625 L 9.296875 -6.15625 L 3.328125 -6.15625 L 3.328125 0 Z M 1.671875 0 "></path>
                                </g>
                            </g>
                        </g>
                        <g fill="#e6ff4b" fill-opacity="1">
                            <g transform="translate(75.535076, 19.626622)">
                                <g>
                                    <path d="M 0.90625 -12.28125 L 0.90625 -13.765625 L 11.234375 -13.765625 L 11.234375 -12.28125 L 6.90625 -12.28125 L 6.90625 0 L 5.234375 0 L 5.234375 -12.28125 Z M 0.90625 -12.28125 "></path>
                                </g>
                            </g>
                        </g>
                        <g fill="#e6ff4b" fill-opacity="1">
                            <g transform="translate(100.002253, 19.626622)">
                                <g>
                                    <path d="M 4.171875 0 L 0.40625 -13.765625 L 2.09375 -13.765625 L 4.96875 -2.546875 L 5.109375 -2.546875 L 8.03125 -13.765625 L 9.921875 -13.765625 L 12.84375 -2.546875 L 12.984375 -2.546875 L 15.859375 -13.765625 L 17.546875 -13.765625 L 13.78125 0 L 12.0625 0 L 9.03125 -10.96875 L 8.921875 -10.96875 L 5.890625 0 Z M 4.171875 0 "></path>
                                </g>
                            </g>
                        </g>
                        <g fill="#e6ff4b" fill-opacity="1">
                            <g transform="translate(130.275025, 19.626622)">
                                <g>
                                    <path d="M 2.234375 0 L 0.484375 0 L 5.53125 -13.765625 L 7.25 -13.765625 L 12.3125 0 L 10.5625 0 L 9.171875 -3.890625 L 3.609375 -3.890625 Z M 4.140625 -5.375 L 8.65625 -5.375 L 6.453125 -11.578125 L 6.34375 -11.578125 Z M 4.140625 -5.375 "></path>
                                </g>
                            </g>
                        </g>
                        <g fill="#e6ff4b" fill-opacity="1">
                            <g transform="translate(155.387279, 19.626622)">
                                <g>
                                    <path d="M 1.671875 0 L 1.671875 -13.765625 L 6.3125 -13.765625 C 7.382812 -13.765625 8.265625 -13.582031 8.953125 -13.21875 C 9.648438 -12.851562 10.164062 -12.347656 10.5 -11.703125 C 10.832031 -11.066406 11 -10.347656 11 -9.546875 C 11 -8.628906 10.785156 -7.832031 10.359375 -7.15625 C 9.941406 -6.476562 9.296875 -5.988281 8.421875 -5.6875 L 11.53125 0 L 9.59375 0 L 6.6875 -5.375 C 6.582031 -5.375 6.46875 -5.375 6.34375 -5.375 L 3.328125 -5.375 L 3.328125 0 Z M 3.328125 -6.875 L 6.296875 -6.875 C 7.390625 -6.875 8.171875 -7.113281 8.640625 -7.59375 C 9.117188 -8.070312 9.359375 -8.722656 9.359375 -9.546875 C 9.359375 -10.367188 9.117188 -11.03125 8.640625 -11.53125 C 8.171875 -12.03125 7.378906 -12.28125 6.265625 -12.28125 L 3.328125 -12.28125 Z M 3.328125 -6.875 "></path>
                                </g>
                            </g>
                        </g>
                        <g fill="#e6ff4b" fill-opacity="1">
                            <g transform="translate(179.800703, 19.626622)">
                                <g>
                                    <path d="M 1.671875 0 L 1.671875 -13.765625 L 9.96875 -13.765625 L 9.96875 -12.28125 L 3.328125 -12.28125 L 3.328125 -7.640625 L 9.546875 -7.640625 L 9.546875 -6.15625 L 3.328125 -6.15625 L 3.328125 -1.484375 L 10.078125 -1.484375 L 10.078125 0 Z M 1.671875 0 "></path>
                                </g>
                            </g>
                        </g>
                        <g fill="#e6ff4b" fill-opacity="1">
                            <g transform="translate(203.434671, 19.626622)">
                                <g></g>
                            </g>
                        </g>
                        <g fill="#e6ff4b" fill-opacity="1">
                            <g transform="translate(221.07491, 19.626622)">
                                <g>
                                    <path d="M 1.671875 0 L 1.671875 -13.765625 L 9.96875 -13.765625 L 9.96875 -12.28125 L 3.328125 -12.28125 L 3.328125 -7.640625 L 9.546875 -7.640625 L 9.546875 -6.15625 L 3.328125 -6.15625 L 3.328125 -1.484375 L 10.078125 -1.484375 L 10.078125 0 Z M 1.671875 0 "></path>
                                </g>
                            </g>
                        </g>
                        <g fill="#e6ff4b" fill-opacity="1">
                            <g transform="translate(244.708877, 19.626622)">
                                <g>
                                    <path d="M 12.578125 -13.765625 L 12.578125 0 L 10.96875 0 L 3.46875 -10.8125 L 3.328125 -10.8125 L 3.328125 0 L 1.671875 0 L 1.671875 -13.765625 L 3.28125 -13.765625 L 10.8125 -2.921875 L 10.9375 -2.921875 L 10.9375 -13.765625 Z M 12.578125 -13.765625 "></path>
                                </g>
                            </g>
                        </g>
                        <g fill="#e6ff4b" fill-opacity="1">
                            <g transform="translate(271.272518, 19.626622)">
                                <g>
                                    <path d="M 11.078125 -9.453125 C 10.785156 -10.359375 10.304688 -11.070312 9.640625 -11.59375 C 8.972656 -12.125 8.144531 -12.390625 7.15625 -12.390625 C 6.332031 -12.390625 5.585938 -12.175781 4.921875 -11.75 C 4.253906 -11.332031 3.722656 -10.710938 3.328125 -9.890625 C 2.929688 -9.078125 2.734375 -8.070312 2.734375 -6.875 C 2.734375 -5.6875 2.929688 -4.679688 3.328125 -3.859375 C 3.734375 -3.046875 4.273438 -2.425781 4.953125 -2 C 5.640625 -1.582031 6.40625 -1.375 7.25 -1.375 C 8.03125 -1.375 8.71875 -1.535156 9.3125 -1.859375 C 9.914062 -2.191406 10.382812 -2.660156 10.71875 -3.265625 C 11.0625 -3.867188 11.242188 -4.582031 11.265625 -5.40625 L 7.640625 -5.40625 L 7.640625 -6.875 L 12.875 -6.875 L 12.875 -5.40625 C 12.875 -4.269531 12.628906 -3.28125 12.140625 -2.4375 C 11.660156 -1.601562 11 -0.957031 10.15625 -0.5 C 9.3125 -0.0390625 8.34375 0.1875 7.25 0.1875 C 6.03125 0.1875 4.960938 -0.0976562 4.046875 -0.671875 C 3.128906 -1.242188 2.410156 -2.054688 1.890625 -3.109375 C 1.378906 -4.171875 1.125 -5.425781 1.125 -6.875 C 1.125 -8.332031 1.378906 -9.585938 1.890625 -10.640625 C 2.410156 -11.703125 3.125 -12.519531 4.03125 -13.09375 C 4.9375 -13.664062 5.976562 -13.953125 7.15625 -13.953125 C 8.113281 -13.953125 8.988281 -13.757812 9.78125 -13.375 C 10.570312 -13 11.226562 -12.472656 11.75 -11.796875 C 12.269531 -11.128906 12.617188 -10.347656 12.796875 -9.453125 Z M 11.078125 -9.453125 "></path>
                                </g>
                            </g>
                        </g>
                        <g fill="#e6ff4b" fill-opacity="1">
                            <g transform="translate(297.648025, 19.626622)">
                                <g>
                                    <path d="M 3.328125 -13.765625 L 3.328125 0 L 1.671875 0 L 1.671875 -13.765625 Z M 3.328125 -13.765625 "></path>
                                </g>
                            </g>
                        </g>
                        <g fill="#e6ff4b" fill-opacity="1">
                            <g transform="translate(314.96575, 19.626622)">
                                <g>
                                    <path d="M 12.578125 -13.765625 L 12.578125 0 L 10.96875 0 L 3.46875 -10.8125 L 3.328125 -10.8125 L 3.328125 0 L 1.671875 0 L 1.671875 -13.765625 L 3.28125 -13.765625 L 10.8125 -2.921875 L 10.9375 -2.921875 L 10.9375 -13.765625 Z M 12.578125 -13.765625 "></path>
                                </g>
                            </g>
                        </g>
                        <g fill="#e6ff4b" fill-opacity="1">
                            <g transform="translate(341.529391, 19.626622)">
                                <g>
                                    <path d="M 1.671875 0 L 1.671875 -13.765625 L 9.96875 -13.765625 L 9.96875 -12.28125 L 3.328125 -12.28125 L 3.328125 -7.640625 L 9.546875 -7.640625 L 9.546875 -6.15625 L 3.328125 -6.15625 L 3.328125 -1.484375 L 10.078125 -1.484375 L 10.078125 0 Z M 1.671875 0 "></path>
                                </g>
                            </g>
                        </g>
                        <g fill="#e6ff4b" fill-opacity="1">
                            <g transform="translate(365.163358, 19.626622)">
                                <g>
                                    <path d="M 1.671875 0 L 1.671875 -13.765625 L 9.96875 -13.765625 L 9.96875 -12.28125 L 3.328125 -12.28125 L 3.328125 -7.640625 L 9.546875 -7.640625 L 9.546875 -6.15625 L 3.328125 -6.15625 L 3.328125 -1.484375 L 10.078125 -1.484375 L 10.078125 0 Z M 1.671875 0 "></path>
                                </g>
                            </g>
                        </g>
                        <g fill="#e6ff4b" fill-opacity="1">
                            <g transform="translate(388.797326, 19.626622)">
                                <g>
                                    <path d="M 1.671875 0 L 1.671875 -13.765625 L 6.3125 -13.765625 C 7.382812 -13.765625 8.265625 -13.582031 8.953125 -13.21875 C 9.648438 -12.851562 10.164062 -12.347656 10.5 -11.703125 C 10.832031 -11.066406 11 -10.347656 11 -9.546875 C 11 -8.628906 10.785156 -7.832031 10.359375 -7.15625 C 9.941406 -6.476562 9.296875 -5.988281 8.421875 -5.6875 L 11.53125 0 L 9.59375 0 L 6.6875 -5.375 C 6.582031 -5.375 6.46875 -5.375 6.34375 -5.375 L 3.328125 -5.375 L 3.328125 0 Z M 3.328125 -6.875 L 6.296875 -6.875 C 7.390625 -6.875 8.171875 -7.113281 8.640625 -7.59375 C 9.117188 -8.070312 9.359375 -8.722656 9.359375 -9.546875 C 9.359375 -10.367188 9.117188 -11.03125 8.640625 -11.53125 C 8.171875 -12.03125 7.378906 -12.28125 6.265625 -12.28125 L 3.328125 -12.28125 Z M 3.328125 -6.875 "></path>
                                </g>
                            </g>
                        </g>
                        <g fill="#e6ff4b" fill-opacity="1">
                            <g transform="translate(413.231667, 19.626622)">
                                <g></g>
                            </g>
                        </g>
                    </g>
                </g>
            </svg>
        </g>
    </g>
</svg>